<?xml version="1.0" encoding="iso-8859-1"?>
<!-- Generator: Adobe Illustrator 19.0.0, SVG Export Plug-In . SVG Version: 6.00 Build 0)  -->
<svg xmlns="http://www.w3.org/2000/svg" xmlns:xlink="http://www.w3.org/1999/xlink" version="1.1" id="Capa_1" x="0px" y="0px" viewBox="0 0 512 512" style="enable-background:new 0 0 512 512;" xml:space="preserve" width="512px" height="512px">
<g>
	<g>
		<path d="M256,0C122.242,0,14,108.284,14,242.1c0,64.151,24.944,122.437,65.476,165.599L29.42,489.076    c-7.749,12.598,5.706,27.844,19.234,21.394l103.793-49.492c32.439,15.415,67.236,23.223,103.553,23.223    c133.758,0,242-108.284,242-242.1C498,108.353,389.835,0,256,0z M250.824,327.748c-9.89,0-17.48-8.284-17.48-17.719    c0-9.665,7.82-17.719,17.48-17.719c9.661,0,17.711,8.054,17.711,17.719C268.535,319.464,260.715,327.748,250.824,327.748z     M277.046,238.232c-12.65,9.895-12.881,16.799-12.881,28.765c0,4.372-2.3,9.435-13.57,9.435c-9.431,0-12.65-3.452-12.65-15.418    c0-19.79,8.74-29.225,15.41-34.978c7.591-6.443,20.472-13.577,20.472-26.003c0-10.585-9.201-15.648-20.701-15.648    c-23.461,0-18.401,17.719-30.822,17.719c-6.21,0-13.8-4.142-13.8-13.116c0-12.427,14.261-30.836,45.312-30.836    c29.441,0,48.992,16.338,48.992,37.969C302.807,217.752,283.256,233.4,277.046,238.232z" fill="#FFFFFF"/>
	</g>
</g>
</svg>
